<svg width="21" height="21" viewBox="0 0 21 21" fill="none" xmlns="http://www.w3.org/2000/svg">
    <path d="M1.5 5.8C1.5 4.11984 1.5 3.27976 1.82698 2.63803C2.1146 2.07354 2.57354 1.6146 3.13803 1.32698C3.77976 1 4.61984 1 6.3 1H14.7C16.3802 1 17.2202 1 17.862 1.32698C18.4265 1.6146 18.8854 2.07354 19.173 2.63803C19.5 3.27976 19.5 4.11984 19.5 5.8V11.2C19.5 12.8802 19.5 13.7202 19.173 14.362C18.8854 14.9265 18.4265 15.3854 17.862 15.673C17.2202 16 16.3802 16 14.7 16H8.18375C7.5597 16 7.24767 16 6.94921 16.0613C6.68443 16.1156 6.4282 16.2055 6.18749 16.3285C5.91617 16.4671 5.67252 16.662 5.18521 17.0518L2.79976 18.9602C2.38367 19.2931 2.17563 19.4595 2.00054 19.4597C1.84827 19.4599 1.70422 19.3906 1.60923 19.2716C1.5 19.1348 1.5 18.8684 1.5 18.3355V5.8Z" stroke="#475467" stroke-width="2" stroke-linecap="round" stroke-linejoin="round"/>
</svg>
